# xmcd
#
# Track frame offsets: 
#        150
#        18772
#        34331
#        52295
#        82077
#        105255
#        138628
#
# Disc length: 2058 seconds
#
# Revision: 0
# Processed by: cddbd v1.5.2PL0 Copyright (c) Steve Scherf et al.
# Submitted via: ExactAudioCopy v1.0b1
#
DISCID=5a080807
DTITLE=Lynn Stokes and Sol Surfers - Sol Surfers
DYEAR=2014
DGENRE=Rock
TTITLE0=Crocodile Tears
TTITLE1=Something Better
TTITLE2=New Sheriff In Town
TTITLE3=Blind Man Walking
TTITLE4=Dia De Los Muertos
TTITLE5=The Stranger
TTITLE6=Sol Surfer
EXTD=
EXTT0=
EXTT1=
EXTT2=
EXTT3=
EXTT4=
EXTT5=
EXTT6=
PLAYORDER=
